<svg xmlns="http://www.w3.org/2000/svg" version="1.1" xmlns:xlink="http://www.w3.org/1999/xlink" xmlns:svgjs="http://svgjs.dev/svgjs" width="1440" height="560" preserveAspectRatio="none" viewBox="0 0 1440 560"><g mask="url(&quot;#SvgjsMask1012&quot;)" fill="none"><path d="M1512 560L0 560 L0 326.56Q60.48 315.04, 72 375.53Q123.72 355.25, 144 406.97Q146.9 337.87, 216 340.77Q263.7 268.47, 336 316.17Q386.29 246.46, 456 296.74Q516.51 285.25, 528 345.76Q589.29 335.06, 600 396.35Q653.63 329.98, 720 383.61Q757.3 300.91, 840 338.21Q907.96 286.17, 960 354.13Q997.74 271.87, 1080 309.6Q1106.56 264.16, 1152 290.72Q1229.17 247.89, 1272 325.06Q1352.66 285.72, 1392 366.38Q1465.87 320.25, 1512 394.12z" fill="rgba(0, 67, 70, 1)"></path><path d="M1488 560L0 560 L0 436.46Q43.25 407.71, 72 450.96Q124.59 431.55, 144 484.15Q171.85 440, 216 467.85Q229.78 361.63, 336 375.41Q379.31 346.73, 408 390.04Q522.51 384.55, 528 499.06Q567.02 418.08, 648 457.1Q669.72 406.82, 720 428.54Q763.32 399.86, 792 443.18Q837.51 416.69, 864 462.2Q918.07 444.27, 936 498.34Q964.42 454.76, 1008 483.18Q1016.23 419.41, 1080 427.64Q1108.05 383.69, 1152 411.73Q1243.4 383.13, 1272 474.54Q1314.8 445.34, 1344 488.13Q1351.87 424, 1416 431.86Q1433.8 377.66, 1488 395.46z" fill="rgba(9, 188, 138, 1)"></path><path d="M1464 560L0 560 L0 527.87Q63.18 519.05, 72 582.22Q95.35 533.57, 144 556.91Q185.94 526.85, 216 568.79Q236.62 469.41, 336 490.03Q385.51 419.54, 456 469.05Q511.55 452.6, 528 508.15Q627.74 487.89, 648 587.63Q652.18 519.81, 720 523.99Q731.8 463.8, 792 475.6Q837.8 449.4, 864 495.21Q905.12 464.33, 936 505.45Q980.59 430.03, 1056 474.62Q1101.32 447.94, 1128 493.25Q1208.46 501.71, 1200 582.18Q1197.44 507.62, 1272 505.05Q1291.91 452.96, 1344 472.87Q1429.81 438.68, 1464 524.49z" fill="rgba(255, 255, 255, 1)"></path></g><defs><mask id="SvgjsMask1012"><rect width="1440" height="560" fill="#ffffff"></rect></mask></defs></svg>