<svg xmlns="http://www.w3.org/2000/svg" version="1.1" xmlns:xlink="http://www.w3.org/1999/xlink" xmlns:svgjs="http://svgjs.dev/svgjs" width="1440" height="560" preserveAspectRatio="none" viewBox="0 0 1440 560"><g mask="url(&quot;#SvgjsMask1005&quot;)" fill="none"><path d="M42.93 140C42.93 81.38 19.83 75.87 0 11.2C-1.64 5.87 -5.19 0.41 0 0C64.81 -5.19 70 0 140 0C210 0 210 0 280 0C327.27 0 339.62 -20.79 374.55 0C409.62 20.87 385.34 81.83 420 83.33C478.06 85.83 496.66 -4.82 560 8C636.66 23.52 672.49 62.78 700 140C720.95 198.78 656.92 210.19 656.92 280C656.92 346.07 676.97 411.76 700 411.76C723.4 411.76 749.78 346.12 749.78 280C749.78 210.24 712.18 212.08 700 140C688.52 72.08 667.15 35.31 702.46 0C737.15 -34.69 771.23 0 840 0C910 0 910 0 980 0C1050 0 1050 0 1120 0C1190 0 1190 0 1260 0C1283.34 0 1306.67 -14.97 1306.67 0C1306.67 35.94 1280.59 49.97 1260 101.82C1252.79 119.97 1264.33 126.48 1251.06 140C1194.33 197.77 1182.61 189.3 1120 244.41C1103.08 259.3 1106.45 262.57 1092 280C1036.45 347.03 1037.28 348.16 980 413.33C975.75 418.16 968.95 416.37 968.95 420C968.95 423.9 975.78 422.92 980 428.4C1029.68 492.92 1076.76 518.68 1076.76 560C1076.76 584.48 1028.38 560 980 560C923.28 560 917.4 572.16 866.55 560C847.4 555.42 856.4 526.52 840 526.52C814.61 526.52 814.01 552.57 782.96 560C744.01 569.31 741.48 560 700 560C630 560 630 560 560 560C490 560 490 560 420 560C350 560 350 560 280 560C210 560 210 560 140 560C70 560 35 595 0 560C-35 525 0 490 0 420C0 350 0 350 0 280C0 228.94 -13.75 222.73 0 177.88C7.71 152.73 42.93 164.72 42.93 140" stroke="rgba(9, 188, 138, 0.65)" stroke-width="2"></path><path d="M980 14C960.94 14 944 82.19 944 140C944 161.34 961.52 172.31 980 172.31C999.84 172.31 1020.65 162.3 1020.65 140C1020.65 83.14 999.26 14 980 14" stroke="rgba(9, 188, 138, 0.65)" stroke-width="2"></path><path d="M1292.31 140C1312.3 95.45 1360.86 125.98 1400 86.15C1429.64 55.98 1398.16 19.51 1429.87 0C1468.16 -23.56 1512.29 -27.35 1540 0C1567.35 26.99 1563.69 71.06 1540 108.68C1519.61 141.06 1451.85 117.33 1451.85 140C1451.85 166.99 1513.23 165.49 1540 208C1557.31 235.49 1540 244 1540 280C1540 350 1540 350 1540 420C1540 490 1555.22 505.22 1540 560C1535.77 575.22 1508.58 574.93 1501.11 560C1473.58 504.93 1503.92 469.16 1470 420C1453.37 395.9 1424.03 434.92 1400 413.49C1345.54 364.92 1341.55 352.42 1313.03 280C1287.7 215.67 1268.81 192.37 1292.31 140" stroke="rgba(9, 188, 138, 0.65)" stroke-width="2"></path><path d="M280 273.64C272.68 273.64 263.53 276.38 263.53 280C263.53 283.8 273.04 288.48 280 288.48C283.65 288.48 284.75 284.08 284.75 280C284.75 276.66 283.29 273.64 280 273.64" stroke="rgba(0, 67, 70, 0.46)" stroke-width="2"></path><path d="M560 385C535.95 385 520 404.7 520 420C520 433.11 538.17 441.82 560 441.82C622.79 441.82 689.23 434.05 689.23 420C689.23 405.64 620.57 385 560 385" stroke="rgba(9, 188, 138, 0.65)" stroke-width="2"></path><path d="M89.6 140C108.98 80.68 54.59 47.14 71.56 0C79.79 -22.86 105.78 0 140 0C210 0 210 0 280 0C304.54 0 317.2 -17.49 329.09 0C364.8 52.51 341.74 78.16 375.2 140C387.19 162.16 399.91 168 420 168C433.74 168 428.74 151.1 442.86 140C498.74 96.1 504.41 58 560 58C606.47 58 640.43 91.01 646.97 140C655.24 202.01 623.37 213.23 589.62 280C579.88 299.27 576.09 297.35 560 312.08C499.61 367.35 436.67 372.84 436.67 420C436.67 460.43 499.52 451.63 560 487.27C618.33 521.63 674.29 540.28 674.29 560C674.29 576.64 617.14 560 560 560C490 560 490 560 420 560C350 560 350 560 280 560C210 560 210 560 140 560C70 560 35 595 0 560C-35 525 0 490 0 420C0 350 0 350 0 280C0 249.53 -15.13 242.7 0 219.06C29.67 172.7 73.2 190.21 89.6 140" stroke="rgba(0, 67, 70, 0.46)" stroke-width="2"></path><path d="M767.31 140C752.06 72.96 740.32 45.35 763.86 0C776.66 -24.65 801.93 0 840 0C880.18 0 910.63 -25.25 920.37 0C937.63 44.75 877.54 80.04 894 140C907.35 188.63 937.59 177.95 980 217.18C1013.26 247.95 1045.33 246.85 1045.33 280C1045.33 317.15 1018.54 325.76 980 357.78C934.29 395.76 926.96 386.83 876.84 420C856.96 433.16 858.83 450.43 840 450.43C819.82 450.43 800.46 442.48 798.82 420C794.24 357.26 835.18 347.75 827.56 280C819.43 207.75 783.91 212.96 767.31 140" stroke="rgba(0, 67, 70, 0.46)" stroke-width="2"></path><path d="M1077.1 140C1050.26 75.38 1029.15 45.65 1043.14 0C1050.6 -24.35 1081.57 0 1120 0C1163.55 0 1196.41 -26.47 1207.11 0C1224.71 43.53 1205.54 78.51 1176.6 140C1161.99 171.05 1146.75 185.08 1120 185.08C1097 185.08 1088.69 167.92 1077.1 140" stroke="rgba(0, 67, 70, 0.46)" stroke-width="2"></path><path d="M1540 62.63C1521.36 62.63 1476.53 18.29 1476.53 0C1476.53 -13.02 1524.03 -15.76 1540 0C1555.76 15.55 1553.09 62.63 1540 62.63" stroke="rgba(0, 67, 70, 0.46)" stroke-width="2"></path><path d="M140 242.16C119.16 252.7 110.21 260.78 110.21 280C110.21 300.29 119.34 307.24 140 321.18C204.24 364.52 224.25 405.8 280 394.55C326.29 385.21 344.07 335.18 344.07 280C344.07 234.95 322.85 202.04 280 194.09C220.82 183.12 204.05 209.75 140 242.16" stroke="rgba(0, 67, 70, 0.46)" stroke-width="2"></path><path d="M1366.06 280C1366.06 245.05 1373.93 207.74 1400 207.74C1439.6 207.74 1497.39 247.46 1497.39 280C1497.39 309.64 1442.01 332.09 1400 332.09C1376.35 332.09 1366.06 307.22 1366.06 280" stroke="rgba(0, 67, 70, 0.46)" stroke-width="2"></path><path d="M926.9 560C926.9 541.37 954.64 498.4 980 498.4C1003.84 498.4 1025.29 540.66 1025.29 560C1025.29 571.46 1002.64 560 980 560C953.45 560 926.9 572.17 926.9 560" stroke="rgba(0, 67, 70, 0.46)" stroke-width="2"></path><path d="M136.27 140C136.27 112.37 132.5 84 140 84C148.37 84 168 118.28 168 140C168 150.06 152.29 147.57 140 147.57C136.42 147.57 136.27 144.15 136.27 140" stroke="rgba(0, 67, 70, 0.46)" stroke-width="2"></path><path d="M280 28C259.45 28 224 7.39 224 0C224 -6.61 252 0 280 0C281.82 0 283.64 -1.6 283.64 0C283.64 12.4 289.27 28 280 28" stroke="rgba(0, 67, 70, 0.46)" stroke-width="2"></path><path d="M514.29 140C514.29 119.24 538.31 108 560 108C578.13 108 593.94 120.66 593.94 140C593.94 174 579.26 214.67 560 214.67C539.44 214.67 514.29 172.57 514.29 140" stroke="rgba(0, 67, 70, 0.46)" stroke-width="2"></path><path d="M834.62 140C827.89 70.51 822.83 63.35 825.26 0C825.52 -6.65 832.63 0 840 0C847.78 0 855.36 -6.98 855.56 0C857.36 63.02 851.13 70.27 844 140C843.35 146.36 842.3 152.17 840 152.17C837.61 152.17 835.26 146.59 834.62 140" stroke="rgba(0, 67, 70, 0.46)" stroke-width="2"></path><path d="M1120 46.67C1115.62 46.67 1111.76 19.88 1111.76 0C1111.76 -3.46 1115.88 0 1120 0C1124.66 0 1129.33 -3.82 1129.33 0C1129.33 19.51 1124.4 46.67 1120 46.67" stroke="rgba(9, 188, 138, 0.65)" stroke-width="2"></path><path d="M1540 16.58C1535.07 16.58 1523.2 4.84 1523.2 0C1523.2 -3.45 1535.77 -4.17 1540 0C1544.17 4.12 1543.47 16.58 1540 16.58" stroke="rgba(9, 188, 138, 0.65)" stroke-width="2"></path><path d="M0 260.24C12.04 260.24 24.32 263.71 35.74 280C80.32 343.59 122.39 371.92 112 420C104.52 454.64 45.84 445.45 0 445.45C-10.16 445.45 0 432.73 0 420C0 350 0 350 0 280C0 270.12 -5.83 260.24 0 260.24" stroke="rgba(0, 67, 70, 0.46)" stroke-width="2"></path><path d="M403.39 280C403.39 267.06 408.62 255.5 420 255.5C440.26 255.5 466.67 265.67 466.67 280C466.67 296.07 438.89 316.3 420 316.3C407.25 316.3 403.39 297.46 403.39 280" stroke="rgba(0, 67, 70, 0.46)" stroke-width="2"></path><path d="M934.84 280C934.84 270.13 959.18 262.05 980 262.05C991.1 262.05 998.67 270.53 998.67 280C998.67 290.61 991.67 302.22 980 302.22C959.76 302.22 934.84 290.22 934.84 280" stroke="rgba(0, 67, 70, 0.46)" stroke-width="2"></path><path d="M90 560C90 513.4 106.73 432.73 140 432.73C178.4 432.73 233.33 520.01 233.33 560C233.33 583.65 186.67 560 140 560C115 560 90 577.04 90 560" stroke="rgba(9, 188, 138, 0.65)" stroke-width="2"></path><path d="M343.64 560C343.64 551.59 379.78 532.76 420 527.69C487.96 519.12 492.9 520.87 560 532.73C584.33 537.03 602.86 552.6 602.86 560C602.86 566.24 581.43 560 560 560C490 560 490 560 420 560C381.82 560 343.64 567.75 343.64 560" stroke="rgba(9, 188, 138, 0.65)" stroke-width="2"></path></g><defs><mask id="SvgjsMask1005"><rect width="1440" height="560" fill="#ffffff"></rect></mask></defs></svg>